<svg width="18" height="19" viewBox="0 0 18 19" fill="none" xmlns="http://www.w3.org/2000/svg">
<path d="M3.56982e-06 1.53705V17.4608C3.56982e-06 18.6751 1.54359 19.4128 2.73232 18.7519L17.1746 10.79C17.4274 10.6514 17.6357 10.4596 17.78 10.2326C17.9243 10.0055 18 9.75046 18 9.49124C18 9.23201 17.9243 8.977 17.78 8.74992C17.6357 8.52283 17.4274 8.33106 17.1746 8.19244L2.73232 0.245933C2.46471 0.0959857 2.15534 0.0113907 1.83686 0.00107189C1.51838 -0.00924688 1.20258 0.055093 0.922788 0.187304C0.642996 0.319516 0.409582 0.514696 0.247168 0.752256C0.0847547 0.989816 -0.0006363 1.26095 3.56982e-06 1.53705Z" fill="#EA854F"/>
</svg>
