<svg width="13" height="8" viewBox="0 0 13 8" fill="none" xmlns="http://www.w3.org/2000/svg">
<path d="M12.0257 0.415617L1.90119 0.415267C1.12915 0.415241 0.660086 1.05799 1.08033 1.553L6.14278 7.56706C6.23092 7.67235 6.35286 7.75908 6.49724 7.81918C6.64162 7.87928 6.80377 7.9108 6.96858 7.91081C7.1334 7.91081 7.29554 7.87931 7.43992 7.81922C7.5843 7.75913 7.70623 7.6724 7.79436 7.56712L12.8466 1.55341C12.9419 1.44198 12.9957 1.31315 13.0023 1.18053C13.0088 1.04792 12.9679 0.916413 12.8839 0.799903C12.7998 0.683392 12.6757 0.586192 12.5246 0.518556C12.3736 0.45092 12.2012 0.415357 12.0257 0.415617Z" fill="#EA854F"/>
</svg>
