<svg width="70" height="70" viewBox="0 0 70 70" fill="none" xmlns="http://www.w3.org/2000/svg">
<circle cx="35" cy="35" r="35" fill="black"/>
<path d="M44.2647 30.8824L33.9706 37.3162L23.6765 30.8824V28.3089L33.9706 34.7427L44.2647 28.3089M44.2647 25.7354H23.6765C22.2482 25.7354 21.103 26.8806 21.103 28.3089V43.7501C21.103 44.4326 21.3741 45.0872 21.8567 45.5698C22.3394 46.0524 22.994 46.3236 23.6765 46.3236H44.2647C44.9473 46.3236 45.6019 46.0524 46.0845 45.5698C46.5671 45.0872 46.8383 44.4326 46.8383 43.7501V28.3089C46.8383 27.6263 46.5671 26.9718 46.0845 26.4891C45.6019 26.0065 44.9473 25.7354 44.2647 25.7354Z" fill="#0096EA"/>
</svg>
