<svg width="70" height="70" viewBox="0 0 70 70" fill="none" xmlns="http://www.w3.org/2000/svg">
<circle cx="35" cy="35" r="35" fill="black"/>
<path d="M34.2392 34.0315C33.1581 34.0315 32.1213 33.5942 31.3569 32.8159C30.5925 32.0376 30.1631 30.982 30.1631 29.8813C30.1631 28.7806 30.5925 27.725 31.3569 26.9467C32.1213 26.1683 33.1581 25.7311 34.2392 25.7311C35.3202 25.7311 36.357 26.1683 37.1214 26.9467C37.8858 27.725 38.3152 28.7806 38.3152 29.8813C38.3152 30.4263 38.2098 30.966 38.005 31.4695C37.8001 31.973 37.4999 32.4305 37.1214 32.8159C36.7429 33.2013 36.2935 33.507 35.799 33.7156C35.3045 33.9241 34.7744 34.0315 34.2392 34.0315ZM34.2392 18.2607C31.2122 18.2607 28.3093 19.485 26.1689 21.6643C24.0286 23.8436 22.8261 26.7993 22.8261 29.8813C22.8261 38.5967 34.2392 51.4623 34.2392 51.4623C34.2392 51.4623 45.6522 38.5967 45.6522 29.8813C45.6522 26.7993 44.4498 23.8436 42.3094 21.6643C40.169 19.485 37.2661 18.2607 34.2392 18.2607Z" fill="#0096EA"/>
</svg>
