<svg width="70" height="70" viewBox="0 0 70 70" fill="none" xmlns="http://www.w3.org/2000/svg">
<circle cx="35" cy="35" r="35" fill="black"/>
<path d="M34.6993 30.6826C32.4856 30.6826 30.6792 32.4891 30.6792 34.7027C30.6792 36.9164 32.4856 38.7229 34.6993 38.7229C36.9129 38.7229 38.7194 36.9164 38.7194 34.7027C38.7194 32.4891 36.9129 30.6826 34.6993 30.6826ZM46.7567 34.7027C46.7567 33.038 46.7718 31.3883 46.6783 29.7266C46.5848 27.7964 46.1445 26.0834 44.733 24.672C43.3186 23.2576 41.6086 22.8203 39.6785 22.7268C38.0137 22.6333 36.364 22.6484 34.7023 22.6484C33.0375 22.6484 31.3879 22.6333 29.7261 22.7268C27.796 22.8203 26.083 23.2606 24.6716 24.672C23.2571 26.0864 22.8198 27.7964 22.7263 29.7266C22.6329 31.3913 22.6479 33.041 22.6479 34.7027C22.6479 36.3645 22.6329 38.0172 22.7263 39.6789C22.8198 41.609 23.2601 43.322 24.6716 44.7335C26.086 46.1479 27.796 46.5852 29.7261 46.6787C31.3909 46.7722 33.0406 46.7571 34.7023 46.7571C36.3671 46.7571 38.0167 46.7722 39.6785 46.6787C41.6086 46.5852 43.3216 46.1449 44.733 44.7335C46.1475 43.319 46.5848 41.609 46.6783 39.6789C46.7748 38.0172 46.7567 36.3675 46.7567 34.7027ZM34.6993 40.8882C31.2763 40.8882 28.5138 38.1257 28.5138 34.7027C28.5138 31.2797 31.2763 28.5172 34.6993 28.5172C38.1223 28.5172 40.8848 31.2797 40.8848 34.7027C40.8848 38.1257 38.1223 40.8882 34.6993 40.8882ZM41.1381 29.7085C40.3389 29.7085 39.6935 29.0631 39.6935 28.2639C39.6935 27.4647 40.3389 26.8193 41.1381 26.8193C41.9373 26.8193 42.5827 27.4647 42.5827 28.2639C42.583 28.4537 42.5458 28.6416 42.4733 28.817C42.4007 28.9924 42.2943 29.1517 42.1601 29.2859C42.026 29.4201 41.8666 29.5265 41.6912 29.599C41.5159 29.6715 41.3279 29.7087 41.1381 29.7085Z" fill="#0096EA"/>
</svg>
