<svg width="70" height="70" viewBox="0 0 70 70" fill="none" xmlns="http://www.w3.org/2000/svg">
<circle cx="35" cy="35" r="35" fill="black"/>
<path d="M36.2607 22.2725C30.8198 22.2725 25.4545 25.8997 25.4545 31.7563C25.4545 35.478 27.5515 37.6128 28.8173 37.6128C29.3462 37.6128 29.6485 36.1581 29.6485 35.7425C29.6485 35.2513 28.4016 34.1933 28.4016 32.153C28.4016 27.8834 31.6511 24.8796 35.8451 24.8796C39.4535 24.8796 42.1173 26.9388 42.1173 30.6983C42.1173 33.5132 40.9837 38.7841 37.3376 38.7841C36.0151 38.7841 34.8816 37.8395 34.8816 36.4604C34.8816 34.4578 36.2796 32.5119 36.2796 30.4527C36.2796 26.9388 31.311 27.5811 31.311 31.8129C31.311 32.7009 31.4244 33.6833 31.8211 34.4956C31.0843 37.6506 29.5918 42.3358 29.5918 45.5852C29.5918 46.5865 29.743 47.5689 29.8374 48.5702C30.0263 48.778 29.9319 48.7591 30.1964 48.6458C32.8601 44.9807 32.7657 44.2817 33.9748 39.4831C34.636 40.73 36.3174 41.3912 37.6398 41.3912C43.2697 41.3912 45.8012 35.9125 45.8012 30.9628C45.8012 25.6919 41.2482 22.2725 36.2607 22.2725Z" fill="#0096EA"/>
</svg>
